<svg width="500" height="500" viewBox="0 0 500 500" fill="none" xmlns="http://www.w3.org/2000/svg">
<rect width="500" height="500" fill="#F3F2EF"/>
<path d="M110.5 331C109.833 331 109.5 330.167 109.5 328.5V327C109.5 326.333 109.917 326 110.75 326C111.583 326 112.792 325.75 114.375 325.25C116.042 324.75 117.292 324.417 118.125 324.25C126.625 322.333 130.875 317.5 130.875 309.75V177.75C130.875 170.083 129.458 165.208 126.625 163.125C123.792 160.958 118.667 159.875 111.25 159.875H105.625C103.875 159.875 103 158.875 103 156.875C103 155.708 103.542 155 104.625 154.75H105.5L175.625 152.875H188.25C203.167 153.875 215.583 159.25 225.5 169C235.417 178.75 240.375 190.458 240.375 204.125C240.375 217.708 235.5 230.042 225.75 241.125C221.5 246.042 216.708 250.042 211.375 253.125C206.042 256.125 200.792 257.667 195.625 257.75L158.125 256.25H157.125C155.875 256.25 155.25 256.833 155.25 258V309.375C155.25 313.958 156.5 317.333 159 319.5C161.5 321.667 166.792 323.375 174.875 324.625C175.958 324.792 177.708 325.083 180.125 325.5C182.542 325.833 184.167 326 185 326C185.833 326 186.25 326.333 186.25 327V330C186.25 330.667 185.917 331 185.25 331H110.5ZM165.375 159.25C164.375 159.25 163.292 159.292 162.125 159.375C161.042 159.375 159.625 159.417 157.875 159.5C156.125 159.5 155.25 160.167 155.25 161.5V242.125L155.5 245.875C155.75 247.625 156.542 248.542 157.875 248.625L170.625 249.375C184.042 249.375 194.833 244.875 203 235.875C211.25 226.875 215.375 215.583 215.375 202C215.375 188.333 211.375 177.75 203.375 170.25C195.458 162.75 184.875 159 171.625 159C170.458 159 169.375 159.042 168.375 159.125C167.375 159.125 166.375 159.167 165.375 159.25ZM262 331C261.333 331 261 330.167 261 328.5V327C261 326.333 261.417 326 262.25 326C263.083 326 264.292 325.75 265.875 325.25C267.542 324.75 268.792 324.417 269.625 324.25C278.125 322.333 282.375 317.5 282.375 309.75V177.75C282.375 170.083 280.958 165.208 278.125 163.125C275.292 160.958 270.167 159.875 262.75 159.875H257.125C255.375 159.875 254.5 158.875 254.5 156.875C254.5 155.708 255.042 155 256.125 154.75H257L327.125 152.875H339.75C354.667 153.875 367.083 159.25 377 169C386.917 178.75 391.875 190.458 391.875 204.125C391.875 217.708 387 230.042 377.25 241.125C373 246.042 368.208 250.042 362.875 253.125C357.542 256.125 352.292 257.667 347.125 257.75L309.625 256.25H308.625C307.375 256.25 306.75 256.833 306.75 258V309.375C306.75 313.958 308 317.333 310.5 319.5C313 321.667 318.292 323.375 326.375 324.625C327.458 324.792 329.208 325.083 331.625 325.5C334.042 325.833 335.667 326 336.5 326C337.333 326 337.75 326.333 337.75 327V330C337.75 330.667 337.417 331 336.75 331H262ZM316.875 159.25C315.875 159.25 314.792 159.292 313.625 159.375C312.542 159.375 311.125 159.417 309.375 159.5C307.625 159.5 306.75 160.167 306.75 161.5V242.125L307 245.875C307.25 247.625 308.042 248.542 309.375 248.625L322.125 249.375C335.542 249.375 346.333 244.875 354.5 235.875C362.75 226.875 366.875 215.583 366.875 202C366.875 188.333 362.875 177.75 354.875 170.25C346.958 162.75 336.375 159 323.125 159C321.958 159 320.875 159.042 319.875 159.125C318.875 159.125 317.875 159.167 316.875 159.25Z" fill="black"/>
</svg>
